<svg width="160" height="160" viewBox="0 0 160 160" xmlns="http://www.w3.org/2000/svg"><rect width="160" height="160" rx="34" fill="#0B0B0B"/><g fill="#d4a017"><g transform="translate(27.02,95.18) scale(0.04600,-0.04600)"><path d="M83 63V157L388 304Q407 313 424.0 319.5Q441 326 450 328Q441 330 423.0 336.5Q405 343 388 352L83 500V597L517 383V277Z" transform="translate(0.00,0)"/></g></g><g fill="#F4F4F1"><g transform="translate(66.62,107.30) scale(0.07800,-0.07800)"><path d="M-19.900146484375 -200V-101.4493408203125H46.63480224609375Q75.1497802734375 -101.4493408203125 75.1497802734375 -71.4493408203125V494.2501220703125H189.6005859375V-94.299560546875Q189.6005859375 -142.67474365234375 161.43795776367188 -171.33737182617188Q133.27532958984375 -200 85.2001953125 -200ZM132.37518310546875 556.7998046875Q100.47503662109375 556.7998046875 78.46243286132812 577.5748901367188Q56.4498291015625 598.3499755859375 56.4498291015625 631.900146484375Q56.4498291015625 665.6253051757812 78.46243286132812 686.3128967285156Q100.47503662109375 707.00048828125 132.37518310546875 707.00048828125Q165.27532958984375 707.00048828125 186.78793334960938 686.3128967285156Q208.300537109375 665.6253051757812 208.300537109375 631.900146484375Q208.300537109375 598.3499755859375 186.78793334960938 577.5748901367188Q165.27532958984375 556.7998046875 132.37518310546875 556.7998046875Z" transform="translate(0.00,0)"/><path d="M73.1497802734375 -200V494.2501220703125H185.6005859375V429.17547607421875H202.5506591796875Q220.2506103515625 460.100341796875 257.7380065917969 484.17523193359375Q295.22540283203125 508.2501220703125 364.500244140625 508.2501220703125Q425.37518310546875 508.2501220703125 476.72515869140625 478.57513427734375Q528.0751342773438 448.900146484375 559.1626281738281 392.07513427734375Q590.2501220703125 335.2501220703125 590.2501220703125 254.77508544921875V239.47503662109375Q590.2501220703125 159.17498779296875 559.2501220703125 102.26248168945312Q528.2501220703125 45.3499755859375 476.900146484375 15.67498779296875Q425.5501708984375 -14 364.500244140625 -14Q318.100341796875 -14 286.37542724609375 -2.800048828125Q254.6505126953125 8.39990234375 235.27557373046875 26.037322998046875Q215.900634765625 43.67474365234375 204.5506591796875 61.899658203125H187.6005859375V-200ZM330.699951171875 86.20068359375Q393.899658203125 86.20068359375 434.67449951171875 126.41299438476562Q475.4493408203125 166.62530517578125 475.4493408203125 242.300048828125V251.9500732421875Q475.4493408203125 327.62481689453125 434.2619934082031 367.8371276855469Q393.07464599609375 408.0494384765625 330.699951171875 408.0494384765625Q268.500244140625 408.0494384765625 227.22540283203125 367.8371276855469Q185.9505615234375 327.62481689453125 185.9505615234375 251.9500732421875V242.300048828125Q185.9505615234375 166.62530517578125 227.22540283203125 126.41299438476562Q268.500244140625 86.20068359375 330.699951171875 86.20068359375Z" transform="translate(237.36,0)"/></g></g></svg>